<svg width="7" height="7" viewBox="0 0 7 7" fill="none" xmlns="http://www.w3.org/2000/svg">
<g clip-path="url(#clip0_285_1262)">
<path d="M6.12504 1.45849L0.875036 1.45849C0.821882 1.45865 0.76978 1.47331 0.724339 1.50089C0.678897 1.52846 0.641836 1.56791 0.617146 1.61498C0.592455 1.66205 0.581069 1.71497 0.584214 1.76803C0.587359 1.82109 0.604916 1.87229 0.634994 1.91611L3.25999 5.70778C3.36879 5.86499 3.6307 5.86499 3.73979 5.70778L6.36479 1.91611C6.39517 1.87238 6.41299 1.82115 6.4163 1.768C6.41962 1.71485 6.40831 1.66181 6.38359 1.61464C6.35888 1.56747 6.32171 1.52797 6.27613 1.50044C6.23055 1.47291 6.17829 1.4584 6.12504 1.45849Z" fill="#052841"/>
</g>
<defs>
<clipPath id="clip0_285_1262">
<rect width="7" height="7" fill="white" transform="translate(7 7) rotate(180)"/>
</clipPath>
</defs>
</svg>
