<svg width="137" height="136" viewBox="0 0 137 136" fill="none" xmlns="http://www.w3.org/2000/svg">
<path d="M110.784 53.2879C110.784 42.0735 106.33 31.3184 98.3997 23.3886C90.4699 15.4588 79.7148 11.0039 68.5004 11.0039C57.4238 11.0019 46.7887 15.3464 38.8816 23.1032C30.9745 30.8601 26.4269 41.4099 26.2164 52.4845C22.8521 52.4845 19.6256 53.821 17.2467 56.1999C14.8677 58.5788 13.5313 61.8054 13.5312 65.1697V82.0833C13.5313 85.4476 14.8677 88.6741 17.2467 91.0531C19.6256 93.432 22.8521 94.7685 26.2164 94.7685H34.6732C38.0376 94.7685 41.2641 93.432 43.643 91.0531C46.022 88.6741 47.3584 85.4476 47.3584 82.0833V65.1697C47.3584 61.8054 46.022 58.5788 43.643 56.1999C41.2641 53.821 38.0376 52.4845 34.6732 52.4845C34.883 43.6529 38.5394 35.2538 44.8606 29.0827C51.1818 22.9116 59.6664 19.4582 68.5004 19.4607C77.472 19.4607 86.076 23.0246 92.4199 29.3685C98.7637 35.7123 102.328 44.3164 102.328 53.2879C98.9633 53.2879 95.7368 54.6244 93.3578 57.0033C90.9789 59.3822 89.6424 62.6088 89.6424 65.9731V82.8867C89.6537 85.6826 90.5885 88.3965 92.3014 90.6065C94.0142 92.8164 96.4092 94.3984 99.114 95.1067C95.9176 100.914 90.5752 105.239 84.2301 107.158C83.2141 104.962 81.5915 103.103 79.5537 101.8C77.5159 100.496 75.1479 99.8023 72.7288 99.8003H64.272C60.9077 99.8003 57.6812 101.137 55.3022 103.516C52.9233 105.895 51.5868 109.121 51.5868 112.485C51.5868 115.85 52.9233 119.076 55.3022 121.455C57.6812 123.834 60.9077 125.171 64.272 125.171H72.7288C75.5304 125.157 78.2486 124.216 80.4592 122.495C82.6698 120.774 84.2485 118.369 84.9489 115.657C90.1434 114.389 94.9633 111.907 99.0132 108.416C103.063 104.924 106.228 100.523 108.247 95.5719H110.784C114.149 95.5719 117.375 94.2354 119.754 91.8565C122.133 89.4775 123.47 86.251 123.47 82.8867V65.9731C123.47 62.6088 122.133 59.3822 119.754 57.0033C117.375 54.6244 114.149 53.2879 110.784 53.2879ZM38.9016 65.1697V82.0833C38.9016 83.2047 38.4561 84.2802 37.6632 85.0732C36.8702 85.8662 35.7947 86.3117 34.6732 86.3117H26.2164C25.095 86.3117 24.0195 85.8662 23.2265 85.0732C22.4335 84.2802 21.988 83.2047 21.988 82.0833V65.1697C21.988 64.0482 22.4335 62.9727 23.2265 62.1798C24.0195 61.3868 25.095 60.9413 26.2164 60.9413H34.6732C35.7947 60.9413 36.8702 61.3868 37.6632 62.1798C38.4561 62.9727 38.9016 64.0482 38.9016 65.1697ZM72.7288 116.714H64.272C63.1506 116.714 62.0751 116.268 61.2821 115.475C60.4891 114.682 60.0436 113.607 60.0436 112.485C60.0436 111.364 60.4891 110.288 61.2821 109.496C62.0751 108.703 63.1506 108.257 64.272 108.257H72.7288C73.8503 108.257 74.9258 108.703 75.7188 109.496C76.5117 110.288 76.9572 111.364 76.9572 112.485C76.9572 113.607 76.5117 114.682 75.7188 115.475C74.9258 116.268 73.8503 116.714 72.7288 116.714ZM115.013 82.8867C115.013 84.0081 114.567 85.0836 113.774 85.8766C112.981 86.6696 111.906 87.1151 110.784 87.1151H102.328C101.206 87.1151 100.131 86.6696 99.3377 85.8766C98.5447 85.0836 98.0992 84.0081 98.0992 82.8867V65.9731C98.0992 64.8516 98.5447 63.7761 99.3377 62.9832C100.131 62.1902 101.206 61.7447 102.328 61.7447H110.784C111.906 61.7447 112.981 62.1902 113.774 62.9832C114.567 63.7761 115.013 64.8516 115.013 65.9731V82.8867Z" fill="#ED6B2C"/>
</svg>
