<svg width="173" height="55" viewBox="0 0 173 55" fill="none" xmlns="http://www.w3.org/2000/svg">
<g clip-path="url(#clip0_135_4381)">
<path d="M66.3665 48.7959H65.0285C64.7688 48.7959 64.6711 48.7683 64.5855 49.0174H64.3656V47.3812H64.5978C64.6466 47.6149 64.7811 47.6149 65.0316 47.6149H68.2544V47.8579C68.0039 47.8856 67.8023 47.9655 67.8023 48.3039V49.9892C67.8023 50.2599 67.9092 50.386 68.1384 50.386V50.6566C67.1669 51.3732 65.6273 51.73 64.3503 51.73C62.2058 51.73 60.2904 50.3829 60.2904 48.0117C60.2904 45.6405 62.328 44.3119 64.5031 44.3119C65.4165 44.3119 66.4185 44.5825 67.2738 44.8624C67.4663 44.93 67.5732 44.8716 67.6282 44.7855L67.8695 44.8931L67.005 46.5877L66.785 46.4801C66.8248 46.2679 66.6201 46.0833 66.4001 45.948C65.7953 45.6005 65.0743 45.4928 64.3992 45.4928C62.9359 45.4928 61.8423 46.4985 61.8423 48.0301C61.8423 49.5617 63.1895 50.5367 64.5733 50.5367C65.2362 50.5367 65.8625 50.3829 66.3726 50.0815V48.7929L66.3665 48.7959Z" fill="white"/>
<path d="M77.2939 51.5175H74.737V51.2745C74.8623 51.2561 74.9875 51.1976 74.9875 51.0531C74.9875 50.9455 74.9111 50.8194 74.8348 50.724L73.4112 48.7957H71.6027V50.887C71.6027 51.1484 71.6883 51.2161 71.9388 51.2745V51.5175H69.7454V51.2745C69.9959 51.2161 70.0722 51.1392 70.0722 50.887V45.1358C70.0722 44.8744 69.9959 44.8068 69.7454 44.7483V44.5054H74.0069C75.3144 44.5054 76.8937 44.8929 76.8937 46.529C76.8937 47.7285 76.1148 48.4082 74.9997 48.6604L76.4325 50.6072C76.6738 50.9362 76.9335 51.1577 77.297 51.2745V51.5175H77.2939ZM73.6098 45.7079H71.5997V47.6362H73.6586C74.3613 47.6362 75.4274 47.5962 75.4274 46.6398C75.4274 45.6833 74.2818 45.711 73.6098 45.711V45.7079Z" fill="white"/>
<path d="M82.7191 51.7482C80.5349 51.7482 78.5461 50.2965 78.5461 48.0114C78.5461 45.7264 80.6051 44.2747 82.826 44.2747C85.0469 44.2747 86.9317 45.7571 86.9317 48.0114C86.9317 50.2658 84.9216 51.7482 82.7191 51.7482ZM82.7191 45.4342C81.21 45.4342 79.9972 46.4799 79.9972 48.0084C79.9972 49.5369 81.21 50.5826 82.7191 50.5826C84.2282 50.5826 85.4807 49.5369 85.4807 48.0084C85.4807 46.4799 84.2496 45.4342 82.7191 45.4342Z" fill="white"/>
<path d="M96.1728 44.7483C95.9223 44.8068 95.8459 44.8744 95.8459 45.1358V48.9618C95.8459 50.9854 94.8469 51.7512 92.2961 51.7512C89.7453 51.7512 88.7861 50.927 88.7861 48.9618V45.1358C88.7861 44.8744 88.728 44.7975 88.4684 44.7483V44.5054H90.6526V44.7483C90.4021 44.7975 90.3349 44.8744 90.3349 45.1358V48.8633C90.3349 50.152 90.9123 50.5979 92.3053 50.5979C93.6983 50.5979 94.2971 50.0751 94.2971 48.8264V45.1358C94.2971 44.8744 94.2299 44.7975 93.9794 44.7483V44.5054H96.1728V44.7483Z" fill="white"/>
<path d="M102.108 48.8264H99.5206V50.89C99.5206 51.1607 99.5969 51.2191 99.8474 51.2775V51.5205H97.6632V51.2775C97.8832 51.2283 97.9901 51.2006 97.9901 50.8808V45.1388C97.9901 44.8959 97.9626 44.8098 97.6632 44.7513V44.5084H101.925C103.742 44.5084 104.781 45.3418 104.781 46.6274C104.781 47.9129 103.752 48.8264 102.108 48.8264ZM101.512 45.6801H99.5206V47.6361H101.57C102.762 47.6361 103.321 47.2671 103.321 46.6397C103.321 46.0123 102.82 45.6801 101.512 45.6801Z" fill="white"/>
<path d="M117.487 50.6443L117.294 50.7704C117.187 50.6935 117.093 50.6259 117.016 50.6751C116.036 51.3055 114.795 51.73 113.488 51.73C111.151 51.73 109.391 50.1522 109.391 48.0301C109.391 45.908 111.093 44.3119 113.662 44.3119C115.009 44.3119 116.317 44.8747 116.613 44.97C116.729 45.01 116.921 45.0192 117.025 44.9116L117.227 45.0469L116.197 46.7107L115.987 46.5847L116.036 46.4586C116.036 46.071 114.786 45.539 113.622 45.539C112.037 45.539 110.94 46.5662 110.94 47.9502C110.94 49.4326 112.037 50.5059 113.662 50.5059C114.795 50.5059 115.99 49.8478 116.259 49.5094C116.335 49.4141 116.298 49.2665 116.249 49.1496L116.451 49.0235L117.49 50.6412L117.487 50.6443Z" fill="white"/>
<path d="M122.93 51.7482C120.746 51.7482 118.757 50.2965 118.757 48.0114C118.757 45.7264 120.816 44.2747 123.037 44.2747C125.258 44.2747 127.143 45.7571 127.143 48.0114C127.143 50.2658 125.133 51.7482 122.93 51.7482ZM122.93 45.4342C121.421 45.4342 120.209 46.4799 120.209 48.0084C120.209 49.5369 121.421 50.5826 122.93 50.5826C124.439 50.5826 125.692 49.5369 125.692 48.0084C125.692 46.4799 124.461 45.4342 122.93 45.4342Z" fill="white"/>
<path d="M137.701 51.5175H135.556V51.2745C135.807 51.2161 135.883 51.1392 135.883 50.887V46.6059L133.094 51.3299L130.44 46.6059V50.887C130.44 51.1484 130.507 51.2069 130.757 51.2745V51.5175H128.729V51.2745C128.97 51.2161 129.056 51.1484 129.056 50.887V45.1358C129.056 44.8744 128.97 44.8068 128.729 44.7483V44.5054H131.402V44.7483C131.191 44.776 131.124 45.0005 131.228 45.1943L133.189 48.7373L135.227 45.2619C135.352 45.0405 135.312 44.8252 135.083 44.7483V44.5054H137.698V44.7483C137.389 44.8344 137.362 44.9144 137.362 45.1358V50.887C137.362 51.1392 137.447 51.2161 137.698 51.2745V51.5175H137.701Z" fill="white"/>
<path d="M143.685 48.8264H141.098V50.89C141.098 51.1607 141.174 51.2191 141.425 51.2775V51.5205H139.241V51.2775C139.461 51.2283 139.567 51.2006 139.567 50.8808V45.1388C139.567 44.8959 139.54 44.8098 139.241 44.7513V44.5084H143.502C145.32 44.5084 146.358 45.3418 146.358 46.6274C146.358 47.9129 145.329 48.8264 143.685 48.8264ZM143.09 45.6801H141.098V47.6361H143.148C144.339 47.6361 144.898 47.2671 144.898 46.6397C144.898 46.0123 144.397 45.6801 143.09 45.6801Z" fill="white"/>
<path d="M148.79 49.949L148.512 50.724C148.359 51.0439 148.454 51.2192 148.744 51.2745V51.5175H146.358V51.2745C146.715 51.1884 146.877 50.8778 147.021 50.5856L149.214 45.2804C149.309 45.0682 149.33 44.8529 148.936 44.7483V44.5054H152.352V44.7483C151.927 44.856 151.976 45.0866 152.074 45.2988L154.258 50.5856C154.401 50.8747 154.566 51.1853 154.921 51.2745V51.5175H152.535V51.2745C152.822 51.2161 152.947 51.0408 152.795 50.724L152.495 49.949H148.793H148.79ZM150.858 45.7079H150.415L149.193 48.8849H152.089L150.858 45.7079Z" fill="white"/>
<path d="M163.832 51.5175H161.746V51.2745C162.063 51.2346 161.929 50.9639 161.737 50.7517L157.842 46.6859V50.887C157.842 51.13 157.881 51.1884 158.159 51.2745V51.5175H156.167V51.2745C156.455 51.2069 156.494 51.1208 156.494 50.887V45.1358C156.494 44.8837 156.436 44.8068 156.167 44.7483V44.5054H158.486V44.7483C158.37 44.7668 158.312 44.8252 158.312 44.9513C158.312 45.0774 158.388 45.1851 158.477 45.2619L162.179 49.1924V45.1358C162.179 44.9021 162.179 44.8467 161.853 44.7483V44.5054H163.835V44.7483C163.548 44.8344 163.517 44.9144 163.517 45.1358V50.887C163.517 51.13 163.576 51.2161 163.835 51.2745V51.5175H163.832Z" fill="white"/>
<path d="M172.999 44.7483C172.633 44.856 172.297 45.1174 172.077 45.4157L169.892 48.9495V50.8778C169.892 51.1484 169.96 51.2069 170.21 51.2745V51.5175H167.901V51.2745C168.142 51.2069 168.218 51.1392 168.218 50.8778V49.1063L166.074 45.4157C165.842 45.0866 165.515 44.8344 165.102 44.7483V44.5054H168.017V44.7483C167.681 44.8068 167.632 45.0497 167.797 45.2804L169.162 47.6916L170.613 45.2804C170.788 45.0374 170.681 44.7975 170.403 44.7483V44.5054H172.999V44.7483Z" fill="white"/>
<path d="M85.5022 37.9365H78.9801C78.5371 37.9365 78.3721 37.8289 78.1339 37.509C76.6797 35.5499 75.2042 33.6093 73.744 31.6533C72.9589 30.6014 72.2044 29.5281 71.4223 28.4763C71.2696 28.2702 71.2879 28.181 71.4895 28.0365C72.9681 26.9847 73.3774 26.5141 74.2878 24.8687C74.9293 25.7053 75.5555 26.5264 76.1879 27.3414C77.7673 29.3836 79.3344 31.438 80.9382 33.4617C82.1754 35.0209 83.6693 36.325 85.157 37.632C85.2395 37.7028 85.3189 37.7766 85.5022 37.9396V37.9365ZM75.0851 12.0531C75.6228 12.6221 76.1024 13.148 76.4628 13.7723C76.9547 14.6304 76.9272 15.0886 76.3345 15.8544C75.3448 17.1308 74.3275 18.3917 73.2369 19.5819C72.0394 20.889 70.9274 22.2853 69.4458 23.2971C69.2534 23.4294 69.3297 23.5432 69.3969 23.697C69.5986 24.1552 69.6138 24.6411 69.4 25.084C69.2503 25.3916 69.3725 25.4192 69.6108 25.4684C70.8602 25.7237 71.8622 25.2009 72.7817 24.4443C73.3927 23.9399 73.5271 23.8169 73.2949 23.4017C73.2247 23.2787 73.1483 23.1741 72.9589 22.8943C72.7695 22.6144 72.8062 22.5067 73.0017 22.2976C73.6951 21.5595 74.3855 20.8152 75.0515 20.0494C77.7581 16.9432 80.7977 14.2429 84.4696 12.3299C84.5918 12.2653 84.714 12.2008 84.7751 12.0531H75.0851ZM60.1804 12.0531C60.8708 12.7205 61.4848 13.2803 62.0592 13.883C62.6457 14.5012 63.1284 15.2055 63.5377 15.9805C64.2251 14.9103 65.1904 14.5597 66.336 14.9256C67.2433 15.2178 67.8542 16.1958 67.8206 17.2938C67.7901 18.2564 67.4327 19.0653 66.6323 19.7696C67.0722 19.625 67.3135 19.3882 67.5243 19.1145C68.0406 18.4502 68.1506 17.6598 68.1322 16.8632C68.1108 15.9221 68.4744 15.1379 68.9448 14.3782C69.51 13.4648 70.289 12.7574 71.2054 12.0531H60.1835H60.1804ZM62.331 37.2691C61.3779 36.3034 61.4604 35.0948 62.5541 34.2951C63.3178 33.7354 64.222 33.4863 65.1049 33.2002C66.0366 32.8958 66.9469 32.5452 67.7412 31.9516C68.3369 31.5056 68.8135 30.9582 68.9326 30.1893C69.0701 29.2974 68.7096 28.6055 67.9978 28.098C67.228 27.5536 66.3848 27.4706 65.5295 27.852C64.6527 28.2395 64.2617 29.1744 64.5672 30.0233C64.8421 30.7829 65.8747 31.072 66.4948 30.5615C66.73 30.3677 66.8186 30.1278 66.7056 29.8449C66.6201 29.6327 66.4796 29.6142 66.0824 29.7188C66.4337 29.768 66.5529 29.8357 66.5254 29.9956C66.4826 30.2355 66.2963 30.3185 66.0824 30.3616C65.4989 30.4754 65.0896 30.1063 65.1354 29.5066C65.1812 28.9253 65.6975 28.507 66.3665 28.507C67.0203 28.507 67.6832 28.9192 67.8909 29.4481C68.0864 29.9494 67.9092 30.4384 67.338 30.9428C66.9683 31.2688 66.5529 31.5303 66.1007 31.724C65.2026 32.1084 64.2923 32.4621 63.3972 32.8558C62.6518 33.1849 61.992 33.6431 61.5185 34.329C61.0083 35.0671 60.9869 36.0082 61.5001 36.7371C61.7659 37.1154 62.0592 37.4844 62.6762 37.632C62.5021 37.4444 62.4196 37.3522 62.3341 37.2661L62.331 37.2691ZM72.8825 24.9579C71.6606 26.1082 70.3317 26.8001 68.6057 26.0712C68.065 25.8437 67.4938 25.6653 66.892 25.5853C64.3717 25.2562 62.5204 27.203 63.0489 29.648C63.2842 30.7337 64.1517 31.4411 65.1935 31.3642C64.943 31.2442 64.7077 31.1612 64.5061 31.0259C63.7974 30.5522 63.5896 29.8357 63.6507 29.036C63.7271 28.0119 64.1823 27.2184 65.1751 26.8217C66.2352 26.3972 67.2555 26.6617 68.2605 27.0339C69.7574 27.5875 71.1046 27.3445 72.3205 26.3142C73.1941 25.5761 73.7685 24.6627 73.9426 23.5124C73.6249 24.0199 73.3255 24.5458 72.8856 24.9579H72.8825ZM63.8279 25.3485C64.3259 24.1921 65.114 23.3341 66.3085 22.885C66.6781 22.7466 67.0416 22.5929 67.393 22.4176C68.6577 21.7902 69.2045 20.4031 68.7127 19.0837C68.6454 18.9053 68.5844 18.7116 68.3339 18.5824C68.3736 18.7024 68.3919 18.7577 68.4102 18.8161C68.7279 19.9387 68.1322 21.3504 67.1455 21.6333C65.9877 21.9685 64.8544 22.3314 63.9257 23.1618C64.0937 22.6605 64.3473 22.2392 64.7597 21.9193C65.2973 21.498 65.8991 21.1843 66.4887 20.8491C66.8584 20.6399 67.2494 20.4431 67.5151 19.9541C66.7087 20.48 65.8502 20.5907 65.0743 20.9229C63.7699 21.4826 62.9237 22.3806 62.8198 23.8692C62.7526 24.8318 63.0153 25.7514 63.2475 26.6863C63.44 26.2404 63.6355 25.7944 63.8279 25.3485ZM68.3919 34.6826C68.175 35.0609 67.8481 35.3408 67.5151 35.6084C67.1455 35.9067 66.7514 36.1743 66.449 36.5464C66.2199 36.8293 65.9969 37.1277 66.1557 37.6382C66.3146 37.0815 66.6751 36.8416 67.0691 36.6263C67.4724 36.4111 67.8726 36.1927 68.2605 35.9497C69.2961 35.307 69.7024 34.3966 69.4 33.3848C69.2442 32.8619 68.9234 32.4221 68.6088 31.9854C68.4377 31.7486 68.3552 31.9024 68.2819 32.0531C68.0559 32.5144 67.7748 32.9419 67.3716 33.2525C66.8247 33.6769 66.2443 34.0614 65.67 34.452C65.0682 34.8641 64.4786 35.2916 64.0723 35.9159C63.6721 36.5279 63.6721 37.1676 64.0937 37.7028C63.9348 36.777 64.3778 36.2081 65.0804 35.7867C65.3645 35.6176 65.6547 35.4577 65.948 35.3039C66.8125 34.8487 67.6954 34.4212 68.4224 33.6831C68.6118 34.0583 68.566 34.372 68.3888 34.6796L68.3919 34.6826ZM64.5947 17.4229C64.4236 17.1554 64.5061 16.9063 64.6894 16.6818C64.9399 16.3711 65.3523 16.3127 65.7158 16.528C66.1221 16.7648 66.2993 17.1892 66.1496 17.6229C65.9999 18.0534 65.7158 18.3917 65.3737 18.6839C65.0132 18.9945 64.6497 19.3052 64.3747 19.6957C64.0723 20.1263 63.7699 20.5692 63.8921 21.1658C64.2739 20.3508 65.0071 19.9572 65.7097 19.5112C66.4185 19.0622 66.9805 18.4748 67.1852 17.6136C67.3777 16.8078 66.9164 15.9313 66.116 15.6176C65.2545 15.2793 64.3992 15.5715 64.0021 16.3373C63.7363 16.8509 63.8554 17.4506 64.28 17.7459C64.6619 18.0104 65.0529 17.9273 65.2576 17.4814C64.9918 17.6505 64.7597 17.6874 64.5916 17.4291L64.5947 17.4229ZM65.2209 25.1148C65.7922 24.7457 66.3787 24.4043 67.0233 24.1767C67.2463 24.0999 67.4785 24.0291 67.7137 24.1368C67.8909 24.2167 67.9428 24.3582 67.8573 24.5273C67.7595 24.718 67.6129 24.7026 67.4632 24.5889C67.4113 24.5489 67.4327 24.4228 67.2921 24.4566C67.1089 24.7149 67.2463 24.9179 67.4296 25.1086C67.6587 25.3485 67.9337 25.3516 68.2178 25.2501C68.6638 25.0932 68.9051 24.6504 68.841 24.1398C68.7676 23.5893 68.3247 23.1403 67.787 23.0757C66.6262 22.9342 65.0102 24.1521 64.7719 25.3823C64.9368 25.2839 65.0835 25.207 65.224 25.1178L65.2209 25.1148ZM62.8137 34.8672C62.2333 35.5469 62.2669 36.4941 62.8901 37.0938C62.9756 37.1738 63.0459 37.3306 63.1925 37.2445C63.3055 37.1799 63.2628 37.0385 63.2383 36.937C63.0337 36.0789 63.4522 35.4853 64.0387 34.941C64.5 34.5104 65.0407 34.2029 65.5417 33.8184C64.4878 33.803 63.5285 34.0306 62.8137 34.8672ZM68.8593 36.9893C69.012 36.9831 69.2289 36.98 69.235 37.1799C69.2442 37.3921 69.0548 37.4537 68.8623 37.4198C68.8012 37.4075 68.7463 37.3737 68.6943 37.4352C68.9234 37.9611 69.455 38.0995 69.8552 37.7366C70.2829 37.3491 70.1637 36.5925 69.6444 36.2757C68.734 35.716 67.1883 36.6694 67.2708 37.6351C67.7656 37.2568 68.2697 37.0139 68.8562 36.9893H68.8593ZM65.1079 36.5033C64.8421 36.7186 64.5855 36.9647 64.4939 37.3214C64.3625 37.8319 64.442 37.9396 64.9552 37.9396C65.1904 37.9396 65.4256 37.9396 65.667 37.9396C65.5173 36.817 66.3848 36.2911 67.0539 35.5192C66.2565 35.7529 65.6486 36.0697 65.1079 36.5033ZM62.3952 37.9396C62.0103 37.7243 61.7201 37.5367 61.491 37.2722C61.3993 37.1676 61.3168 37.1615 61.2069 37.2476C60.9258 37.466 60.6417 37.6782 60.2934 37.9396H62.3952ZM71.4987 37.9396C71.126 37.6628 70.8205 37.4352 70.4295 37.143C70.5059 37.4967 70.3623 37.7028 70.3073 37.9396H71.4987ZM70.7441 6.09282C70.9549 6.26812 70.8938 6.57567 70.8755 6.64948C70.8755 6.65871 70.8724 6.66486 70.8724 6.66486L70.0935 9.01761C69.5802 8.43019 69.7116 7.83047 70.3073 7.92889C70.3928 7.47679 70.124 7.06775 69.9529 6.89552C69.7819 6.72329 69.9743 6.76635 70.3806 6.18201C70.7564 5.63764 70.3073 4.47203 70.3073 4.47203C70.3073 4.47203 69.8582 4.89337 69.6108 5.367C69.3114 5.94519 69.4397 6.14203 69.4703 6.40344L68.6974 5.37315L67.674 5.89906C67.2372 5.54845 66.5498 5.87138 66.5223 5.88368C67.3349 4.70884 66.1771 4.06914 65.8166 3.12189C65.4562 4.06914 64.2984 4.70884 65.111 5.88368C65.0835 5.87138 64.3931 5.54845 63.9593 5.89906L62.9359 5.37315L62.163 6.40344C62.1936 6.1451 62.3249 5.94519 62.0225 5.367C61.7751 4.89337 61.326 4.47203 61.326 4.47203C61.326 4.47203 60.8739 5.63457 61.2527 6.18201C61.659 6.76635 61.8514 6.72329 61.6804 6.89552C61.5093 7.06775 61.2405 7.47679 61.326 7.92889C61.9247 7.83047 62.0561 8.43019 61.5398 9.01761L60.7608 6.66486C60.7608 6.66486 60.7608 6.65871 60.7578 6.64948C60.7395 6.57567 60.6753 6.26812 60.8892 6.09282C60.5745 6.12972 60.4248 6.25274 60.4248 6.25274L61.381 9.30671C62.884 9.02377 65.0468 8.98071 65.8166 8.98071C66.5865 8.98071 68.7493 9.02377 70.2523 9.30671L71.2085 6.25274C71.2085 6.25274 71.0588 6.12972 70.7441 6.09282ZM61.8178 6.40959C61.5215 6.1205 61.3382 5.78834 61.5551 5.54845C61.8392 5.63149 61.937 5.92982 61.8178 6.40959ZM65.8166 4.25367C66.4062 4.69039 66.4398 5.26551 65.8166 6.57875C65.1935 5.26858 65.2271 4.69039 65.8166 4.25367ZM64.836 8.51938L63.6446 7.80587L62.8473 8.83924C62.0989 8.53784 62.0775 7.47679 62.9329 7.59058C62.9237 7.02777 62.3585 6.80941 62.2302 6.76943L63.0153 5.72068L63.7729 6.11127C63.7577 6.13587 63.7454 6.16355 63.7332 6.19123C63.4277 6.86784 63.9532 7.45526 64.5092 7.5506C64.1884 6.49263 65.0804 6.52031 65.334 6.83401C65.5875 7.14464 65.5295 7.37837 65.3706 7.65517C65.2515 7.8643 64.833 8.52246 64.833 8.52246L64.836 8.51938ZM65.8166 8.75005L65.4714 8.34716L65.8166 7.81817L66.1618 8.34716L65.8166 8.75005ZM68.786 8.84231L67.9887 7.80894L66.7973 8.52246C66.7973 8.52246 66.3787 7.8643 66.2596 7.65517C66.1007 7.37837 66.0427 7.14464 66.2963 6.83401C66.5498 6.52031 67.4418 6.49263 67.1211 7.5506C67.674 7.45526 68.2025 6.86784 67.897 6.19123C67.8848 6.16355 67.8695 6.13587 67.8573 6.11127L68.6149 5.72068L69.4 6.76943C69.2717 6.81248 68.7096 7.02777 68.6974 7.59058C69.5527 7.47679 69.5314 8.53784 68.7829 8.83924L68.786 8.84231ZM70.0782 5.54538C70.2981 5.78834 70.1118 6.11742 69.8155 6.40652C69.6963 5.92674 69.7941 5.62534 70.0782 5.54538ZM70.0782 9.99255L69.8216 10.7307H61.8148L61.5582 9.99255C63.0123 9.6727 64.8391 9.6727 65.8197 9.6727C66.8003 9.6727 68.6271 9.6727 70.0812 9.99255H70.0782Z" fill="white"/>
<path d="M92.9095 37.998H87.5513V37.4044C88.1409 37.2383 88.3547 37.0968 88.3547 36.4541V22.3375C88.3547 21.6947 88.1653 21.5287 87.5513 21.3872V20.7936H92.9095V21.3872C92.2955 21.5287 92.0847 21.7193 92.0847 22.3375V36.4541C92.0847 37.0968 92.2985 37.2383 92.9095 37.4044V37.998Z" fill="white"/>
<path d="M118.231 37.998H113.108V37.4044C113.887 37.309 113.557 36.6447 113.083 36.1219L103.525 26.1419V36.4541C103.525 37.0476 103.619 37.1922 104.304 37.4044V37.998H99.4158V37.4044C100.124 37.2383 100.219 37.023 100.219 36.4541V22.3375C100.219 21.7193 100.079 21.5287 99.4158 21.3872V20.7936H105.104V21.3872C104.82 21.4333 104.679 21.5779 104.679 21.8854C104.679 22.193 104.869 22.4544 105.079 22.6451L114.168 32.2929V22.3375C114.168 21.7686 114.168 21.624 113.364 21.3872V20.7936H118.228V21.3872C117.519 21.6025 117.449 21.7901 117.449 22.3375V36.4541C117.449 37.0476 117.589 37.2629 118.228 37.4044V37.998H118.231Z" fill="white"/>
<path d="M127.069 34.1475L126.385 36.0482C126.006 36.8324 126.244 37.2599 126.95 37.4014V37.995H121.097V37.4014C121.971 37.1892 122.371 36.4265 122.725 35.7129L128.108 22.6913C128.343 22.1685 128.392 21.6456 127.424 21.3842V20.7906H135.803V21.3842C134.765 21.6456 134.884 22.2146 135.119 22.7374L140.477 35.7129C140.831 36.4265 141.232 37.1861 142.105 37.4014V37.995H136.252V37.4014C136.961 37.2599 137.266 36.8324 136.891 36.0482L136.158 34.1475H127.069ZM132.143 23.74H131.059L128.062 31.5333H135.168L132.146 23.74H132.143Z" fill="white"/>
<path d="M163.425 35.8572L162.955 36.1679C162.695 35.9772 162.46 35.8111 162.27 35.931C159.863 37.4749 156.817 38.5206 153.607 38.5206C147.87 38.5206 143.55 34.6486 143.55 29.4417C143.55 24.2349 147.729 20.3167 154.031 20.3167C157.337 20.3167 160.547 21.6946 161.277 21.9314C161.562 22.0267 162.032 22.0513 162.292 21.7899L162.787 22.1221L160.26 26.2094L159.741 25.8988L159.86 25.5912C159.86 24.6409 156.793 23.3338 153.937 23.3338C150.042 23.3338 147.35 25.8526 147.35 29.2511C147.35 32.8863 150.042 35.5251 154.031 35.5251C156.817 35.5251 159.744 33.9104 160.404 33.077C160.593 32.8402 160.498 32.4834 160.379 32.1974L160.874 31.8898L163.422 35.8572H163.425Z" fill="white"/>
<path d="M172.999 37.998H167.641V37.4044C168.23 37.2383 168.444 37.0968 168.444 36.4541V22.3375C168.444 21.6947 168.255 21.5287 167.641 21.3872V20.7936H172.999V21.3872C172.385 21.5287 172.174 21.7193 172.174 22.3375V36.4541C172.174 37.0968 172.388 37.2383 172.999 37.4044V37.998Z" fill="white"/>
<path d="M22.1391 0L16.5914 3.1124V9.30338L19.2125 10.7304V37.0228L22.1391 35.2083V0Z" fill="white"/>
<path d="M13.8476 8.17468L8.29993 11.2871V17.4811L10.921 18.9051V45.1975L13.8476 43.386V8.17468Z" fill="white"/>
<path d="M5.54763 16.2727L0 19.3851V54.5995L5.54763 51.481V16.2727Z" fill="white"/>
<path d="M26.25 0L31.7976 3.1124V9.30338L29.1766 10.7304V37.0228L26.25 35.2114V0ZM34.5409 43.386L37.4675 45.1975V18.9051L40.0885 17.478V11.2871L34.5409 8.17467V43.383V43.386ZM42.841 51.4838L48.3886 54.5993V19.3849L42.841 16.2725V51.4807V51.4838Z" fill="white"/>
</g>
<defs>
<clipPath id="clip0_135_4381">
<rect width="173" height="54.5993" fill="white"/>
</clipPath>
</defs>
</svg>
